<!-- Generated by IcoMoon.io -->
<svg version="1.1" xmlns="http://www.w3.org/2000/svg" width="24" height="24" viewBox="0 0 24 24">
<title>ic_arrow_right_24_regular</title>
<path d="M13.267 4.209c-0.3-0.286-0.775-0.274-1.060 0.026s-0.274 0.775 0.026 1.060l6.251 5.955h-14.734c-0.414 0-0.75 0.336-0.75 0.75s0.336 0.75 0.75 0.75h14.734l-6.252 5.955c-0.3 0.286-0.312 0.761-0.026 1.060s0.761 0.312 1.060 0.026l7.419-7.067c0.169-0.161 0.269-0.366 0.3-0.579 0.009-0.047 0.014-0.095 0.014-0.145s-0.005-0.098-0.014-0.145c-0.031-0.213-0.131-0.418-0.3-0.579l-7.419-7.067z"></path>
</svg>
