<!-- Generated by IcoMoon.io -->
<svg version="1.1" xmlns="http://www.w3.org/2000/svg" width="24" height="24" viewBox="0 0 24 24">
<title>ic_arrow_down_24_regular</title>
<path d="M19.791 13.267c0.286-0.3 0.274-0.775-0.026-1.060s-0.775-0.274-1.060 0.026l-5.955 6.251v-14.734c0-0.414-0.336-0.75-0.75-0.75s-0.75 0.336-0.75 0.75v14.734l-5.955-6.252c-0.286-0.3-0.76-0.312-1.060-0.026s-0.311 0.761-0.026 1.060l7.067 7.419c0.161 0.169 0.366 0.269 0.58 0.3 0.047 0.009 0.095 0.014 0.144 0.014s0.098-0.005 0.145-0.014c0.213-0.031 0.418-0.131 0.579-0.3l7.067-7.419z"></path>
</svg>
