<!-- Generated by IcoMoon.io -->
<svg version="1.1" xmlns="http://www.w3.org/2000/svg" width="24" height="24" viewBox="0 0 24 24">
<title>ic_add_24_regular</title>
<path d="M11.75 3c0.38 0 0.694 0.282 0.743 0.648l0.007 0.102 0.001 7.25h7.253c0.414 0 0.75 0.336 0.75 0.75 0 0.38-0.282 0.693-0.648 0.743l-0.102 0.007h-7.253l0.002 7.249c0 0.414-0.336 0.75-0.75 0.75-0.38 0-0.694-0.282-0.743-0.648l-0.007-0.102-0.002-7.249h-7.249c-0.414 0-0.75-0.336-0.75-0.75 0-0.38 0.282-0.693 0.648-0.743l0.102-0.007h7.249l-0.001-7.25c-0-0.414 0.336-0.75 0.75-0.75z"></path>
</svg>
