<!-- Generated by IcoMoon.io -->
<svg version="1.1" xmlns="http://www.w3.org/2000/svg" width="24" height="24" viewBox="0 0 24 24">
<title>ic_archive_24_regular</title>
<path d="M10.25 11c-0.414 0-0.75 0.336-0.75 0.75s0.336 0.75 0.75 0.75h3.5c0.414 0 0.75-0.336 0.75-0.75s-0.336-0.75-0.75-0.75h-3.5zM3 5.25c0-1.243 1.007-2.25 2.25-2.25h13.5c1.243 0 2.25 1.007 2.25 2.25v1.5c0 0.78-0.397 1.467-1 1.871v8.629c0 2.071-1.679 3.75-3.75 3.75h-8.5c-2.071 0-3.75-1.679-3.75-3.75v-8.629c-0.603-0.404-1-1.091-1-1.871v-1.5zM5.5 9v8.25c0 1.243 1.007 2.25 2.25 2.25h8.5c1.243 0 2.25-1.007 2.25-2.25v-8.25h-13zM5.25 4.5c-0.414 0-0.75 0.336-0.75 0.75v1.5c0 0.414 0.336 0.75 0.75 0.75h13.5c0.414 0 0.75-0.336 0.75-0.75v-1.5c0-0.414-0.336-0.75-0.75-0.75h-13.5z"></path>
</svg>
