<!-- Generated by IcoMoon.io -->
<svg version="1.1" xmlns="http://www.w3.org/2000/svg" width="24" height="24" viewBox="0 0 24 24">
<title>ic_audio_on_24_regular</title>
<path d="M15 4.25c0-1.079-1.275-1.651-2.081-0.934l-4.492 3.993c-0.137 0.122-0.315 0.189-0.498 0.189h-3.68c-1.243 0-2.25 1.007-2.25 2.25v4.498c0 1.243 1.007 2.25 2.25 2.25h3.68c0.184 0 0.361 0.067 0.498 0.189l4.491 3.994c0.806 0.717 2.081 0.145 2.081-0.934v-15.496zM9.425 8.43l4.075-3.623v14.382l-4.075-3.624c-0.412-0.366-0.944-0.569-1.495-0.569h-3.68c-0.414 0-0.75-0.336-0.75-0.75v-4.498c0-0.414 0.336-0.75 0.75-0.75h3.68c0.551 0 1.083-0.202 1.495-0.568zM18.992 5.897c0.333-0.247 0.803-0.177 1.049 0.156 1.231 1.662 1.959 3.72 1.959 5.946s-0.728 4.284-1.959 5.946c-0.247 0.333-0.716 0.403-1.049 0.156s-0.403-0.716-0.156-1.049c1.046-1.413 1.665-3.16 1.665-5.054s-0.618-3.641-1.665-5.054c-0.246-0.333-0.177-0.803 0.156-1.049zM17.143 8.369c0.364-0.197 0.819-0.062 1.017 0.303 0.536 0.991 0.84 2.125 0.84 3.328s-0.304 2.338-0.84 3.328c-0.197 0.364-0.652 0.5-1.017 0.303s-0.5-0.652-0.303-1.017c0.42-0.777 0.66-1.666 0.66-2.614s-0.239-1.837-0.66-2.614c-0.197-0.364-0.062-0.819 0.303-1.017z"></path>
</svg>
