<!-- Generated by IcoMoon.io -->
<svg version="1.1" xmlns="http://www.w3.org/2000/svg" width="24" height="24" viewBox="0 0 24 24">
<title>ic_arrow_left_24_regular</title>
<path d="M10.733 19.791c0.3 0.286 0.775 0.274 1.060-0.026s0.274-0.775-0.026-1.060l-6.251-5.955h14.734c0.414 0 0.75-0.336 0.75-0.75s-0.336-0.75-0.75-0.75h-14.734l6.252-5.955c0.3-0.286 0.311-0.76 0.026-1.060s-0.761-0.311-1.060-0.026l-7.419 7.067c-0.169 0.161-0.269 0.366-0.3 0.579-0.009 0.047-0.014 0.095-0.014 0.145s0.005 0.098 0.014 0.145c0.031 0.213 0.131 0.418 0.3 0.579l7.419 7.067z"></path>
</svg>
