<!-- Generated by IcoMoon.io -->
<svg version="1.1" xmlns="http://www.w3.org/2000/svg" width="24" height="24" viewBox="0 0 24 24">
<title>ic_barcode_scanner_24_regular</title>
<path d="M2 5.75c0-1.519 1.231-2.75 2.75-2.75h1.5c0.414 0 0.75 0.336 0.75 0.75s-0.336 0.75-0.75 0.75h-1.5c-0.69 0-1.25 0.56-1.25 1.25v1.5c0 0.414-0.336 0.75-0.75 0.75s-0.75-0.336-0.75-0.75v-1.5zM17 3.75c0-0.414 0.336-0.75 0.75-0.75h1.5c1.519 0 2.75 1.231 2.75 2.75v1.5c0 0.414-0.336 0.75-0.75 0.75s-0.75-0.336-0.75-0.75v-1.5c0-0.69-0.56-1.25-1.25-1.25h-1.5c-0.414 0-0.75-0.336-0.75-0.75zM2.75 16c0.414 0 0.75 0.336 0.75 0.75v1.5c0 0.69 0.56 1.25 1.25 1.25h1.5c0.414 0 0.75 0.336 0.75 0.75s-0.336 0.75-0.75 0.75h-1.5c-1.519 0-2.75-1.231-2.75-2.75v-1.5c0-0.414 0.336-0.75 0.75-0.75zM21.25 16c0.414 0 0.75 0.336 0.75 0.75v1.5c0 1.519-1.231 2.75-2.75 2.75h-1.5c-0.414 0-0.75-0.336-0.75-0.75s0.336-0.75 0.75-0.75h1.5c0.69 0 1.25-0.56 1.25-1.25v-1.5c0-0.414 0.336-0.75 0.75-0.75zM5.75 7c0.414 0 0.75 0.336 0.75 0.75v8.5c0 0.414-0.336 0.75-0.75 0.75s-0.75-0.336-0.75-0.75v-8.5c0-0.414 0.336-0.75 0.75-0.75zM10.5 7.75c0-0.414-0.336-0.75-0.75-0.75s-0.75 0.336-0.75 0.75v8.5c0 0.414 0.336 0.75 0.75 0.75s0.75-0.336 0.75-0.75v-8.5zM13.75 7c0.414 0 0.75 0.336 0.75 0.75v8.5c0 0.414-0.336 0.75-0.75 0.75s-0.75-0.336-0.75-0.75v-8.5c0-0.414 0.336-0.75 0.75-0.75zM18.5 7.75c0-0.414-0.336-0.75-0.75-0.75s-0.75 0.336-0.75 0.75v8.5c0 0.414 0.336 0.75 0.75 0.75s0.75-0.336 0.75-0.75v-8.5z"></path>
</svg>
