<!-- Generated by IcoMoon.io -->
<svg version="1.1" xmlns="http://www.w3.org/2000/svg" width="24" height="24" viewBox="0 0 24 24">
<title>ic_close_page_24_regular</title>
<path d="M8.22 8.22c0.293-0.293 0.768-0.293 1.061 0l2.72 2.72 2.72-2.72c0.293-0.293 0.768-0.293 1.061 0s0.293 0.768 0 1.061l-2.72 2.72 2.72 2.72c0.293 0.293 0.293 0.768 0 1.061s-0.768 0.293-1.061 0l-2.72-2.72-2.72 2.72c-0.293 0.293-0.768 0.293-1.061 0s-0.293-0.768 0-1.061l2.72-2.72-2.72-2.72c-0.293-0.293-0.293-0.768 0-1.061zM6.25 3c-1.795 0-3.25 1.455-3.25 3.25v11.5c0 1.795 1.455 3.25 3.25 3.25h11.5c1.795 0 3.25-1.455 3.25-3.25v-11.5c0-1.795-1.455-3.25-3.25-3.25h-11.5zM4.5 6.25c0-0.966 0.783-1.75 1.75-1.75h11.5c0.966 0 1.75 0.783 1.75 1.75v11.5c0 0.966-0.783 1.75-1.75 1.75h-11.5c-0.966 0-1.75-0.783-1.75-1.75v-11.5z"></path>
</svg>
