<!-- Generated by IcoMoon.io -->
<svg version="1.1" xmlns="http://www.w3.org/2000/svg" width="24" height="24" viewBox="0 0 24 24">
<title>ic_cloud_24_regular</title>
<path d="M12 5.5c-2.413 0-4.383 1.9-4.495 4.285-0.019 0.4-0.349 0.715-0.749 0.715h-0.256c-1.657 0-3 1.343-3 3s1.343 3 3 3h11c1.657 0 3-1.343 3-3s-1.343-3-3-3h-0.256c-0.401 0-0.73-0.315-0.749-0.715-0.112-2.385-2.082-4.285-4.495-4.285zM6.080 9.019c0.468-2.847 2.94-5.019 5.92-5.019s5.452 2.172 5.92 5.019c2.288 0.212 4.080 2.137 4.080 4.481 0 2.485-2.015 4.5-4.5 4.5h-11c-2.485 0-4.5-2.015-4.5-4.5 0-2.344 1.792-4.269 4.080-4.481z"></path>
</svg>
