<!-- Generated by IcoMoon.io -->
<svg version="1.1" xmlns="http://www.w3.org/2000/svg" width="24" height="24" viewBox="0 0 24 24">
<title>ic_delete_24_regular</title>
<path d="M10 5h4c0-1.105-0.895-2-2-2s-2 0.895-2 2zM8.5 5c0-1.933 1.567-3.5 3.5-3.5s3.5 1.567 3.5 3.5h5.75c0.414 0 0.75 0.336 0.75 0.75s-0.336 0.75-0.75 0.75h-1.319l-1.172 12.111c-0.186 1.922-1.801 3.389-3.733 3.389h-6.053c-1.931 0-3.547-1.467-3.733-3.389l-1.172-12.111h-1.319c-0.414 0-0.75-0.336-0.75-0.75s0.336-0.75 0.75-0.75h5.75zM10.5 9.75c0-0.414-0.336-0.75-0.75-0.75s-0.75 0.336-0.75 0.75v7.5c0 0.414 0.336 0.75 0.75 0.75s0.75-0.336 0.75-0.75v-7.5zM14.25 9c0.414 0 0.75 0.336 0.75 0.75v7.5c0 0.414-0.336 0.75-0.75 0.75s-0.75-0.336-0.75-0.75v-7.5c0-0.414 0.336-0.75 0.75-0.75zM6.734 18.467c0.112 1.153 1.081 2.033 2.24 2.033h6.053c1.159 0 2.128-0.88 2.24-2.033l1.158-11.967h-12.848l1.158 11.967z"></path>
</svg>
