<!-- Generated by IcoMoon.io -->
<svg version="1.1" xmlns="http://www.w3.org/2000/svg" width="24" height="24" viewBox="0 0 24 24">
<title>ic_database_24_regular</title>
<path d="M4 6c0-0.691 0.315-1.293 0.774-1.78 0.455-0.482 1.079-0.883 1.792-1.203 1.429-0.641 3.351-1.018 5.433-1.018s4.004 0.377 5.433 1.018c0.714 0.32 1.337 0.72 1.793 1.203 0.459 0.486 0.774 1.089 0.774 1.78v12c0 0.691-0.315 1.293-0.774 1.78-0.455 0.482-1.079 0.883-1.793 1.203-1.429 0.641-3.351 1.017-5.433 1.017s-4.004-0.377-5.433-1.017c-0.714-0.32-1.337-0.72-1.792-1.203-0.459-0.486-0.774-1.089-0.774-1.78v-12zM5.5 6c0 0.207 0.090 0.459 0.365 0.75 0.279 0.295 0.717 0.595 1.315 0.863 1.195 0.536 2.898 0.886 4.82 0.886s3.625-0.351 4.82-0.886c0.598-0.268 1.037-0.568 1.315-0.863 0.275-0.291 0.365-0.543 0.365-0.75s-0.090-0.459-0.365-0.75c-0.279-0.295-0.717-0.595-1.315-0.863-1.195-0.536-2.898-0.886-4.82-0.886s-3.625 0.351-4.82 0.886c-0.598 0.268-1.036 0.568-1.315 0.863-0.275 0.291-0.365 0.543-0.365 0.75zM18.5 8.392c-0.321 0.22-0.681 0.417-1.067 0.59-1.429 0.641-3.351 1.018-5.433 1.018s-4.004-0.377-5.433-1.018c-0.386-0.173-0.746-0.37-1.067-0.59v9.608c0 0.207 0.090 0.459 0.365 0.75 0.279 0.295 0.717 0.595 1.315 0.863 1.195 0.536 2.898 0.886 4.82 0.886s3.625-0.351 4.82-0.886c0.598-0.268 1.037-0.568 1.315-0.863 0.275-0.291 0.365-0.543 0.365-0.75v-9.608z"></path>
</svg>
