<!-- Generated by IcoMoon.io -->
<svg version="1.1" xmlns="http://www.w3.org/2000/svg" width="24" height="24" viewBox="0 0 24 24">
<title>ic_door_close_24_regular</title>
<path d="M9.2 13.429c0.773 0 1.4-0.64 1.4-1.429s-0.627-1.429-1.4-1.429c-0.773 0-1.4 0.64-1.4 1.429s0.627 1.429 1.4 1.429zM7.8 2c-1.546 0-2.8 1.279-2.8 2.857v14.286c0 1.578 1.254 2.857 2.8 2.857h8.4c1.546 0 2.8-1.279 2.8-2.857v-14.286c0-1.578-1.254-2.857-2.8-2.857h-8.4zM6.4 4.857c0-0.789 0.627-1.429 1.4-1.429h8.4c0.773 0 1.4 0.64 1.4 1.429v14.286c0 0.789-0.627 1.428-1.4 1.428h-8.4c-0.773 0-1.4-0.64-1.4-1.428v-14.286z"></path>
</svg>
