<!-- Generated by IcoMoon.io -->
<svg version="1.1" xmlns="http://www.w3.org/2000/svg" width="24" height="24" viewBox="0 0 24 24">
<title>ic_door_open_24_regular</title>
<path d="M10.821 2.003l0.1 0.017 8.5 2c0.305 0.072 0.529 0.324 0.571 0.627l0.007 0.103v14.5c0 0.313-0.194 0.589-0.48 0.7l-0.099 0.030-8.5 2c-0.437 0.103-0.857-0.198-0.915-0.628l-0.007-0.102v-18.5c0-0.415 0.331-0.736 0.723-0.75l0.099 0.003zM11.5 3.697v16.606l7-1.647v-13.312l-7-1.647zM9 4v1.5h-3.5v13h3.5v1.5h-4.25c-0.38 0-0.693-0.282-0.743-0.648l-0.007-0.102v-14.5c0-0.38 0.282-0.693 0.648-0.743l0.102-0.007h4.25zM14 11c0.552 0 1 0.448 1 1s-0.448 1-1 1c-0.552 0-1-0.448-1-1s0.448-1 1-1z"></path>
</svg>
