<!-- Generated by IcoMoon.io -->
<svg version="1.1" xmlns="http://www.w3.org/2000/svg" width="24" height="24" viewBox="0 0 24 24">
<title>ic_dismiss_24_regular</title>
<path d="M4.397 4.554l0.073-0.084c0.266-0.266 0.683-0.29 0.977-0.073l0.084 0.073 6.47 6.469 6.47-6.469c0.293-0.293 0.768-0.293 1.061 0s0.293 0.768 0 1.061l-6.469 6.47 6.469 6.47c0.266 0.266 0.291 0.683 0.073 0.977l-0.073 0.084c-0.266 0.266-0.683 0.291-0.976 0.073l-0.084-0.073-6.47-6.469-6.47 6.469c-0.293 0.293-0.768 0.293-1.061 0s-0.293-0.768 0-1.061l6.469-6.47-6.469-6.47c-0.266-0.266-0.29-0.683-0.073-0.977v0z"></path>
</svg>
