<!-- Generated by IcoMoon.io -->
<svg version="1.1" xmlns="http://www.w3.org/2000/svg" width="24" height="24" viewBox="0 0 24 24">
<title>ic_error_24_regular</title>
<path d="M12 2c5.523 0 10 4.478 10 10s-4.477 10-10 10c-5.523 0-10-4.478-10-10s4.477-10 10-10zM12 3.667c-4.595 0-8.333 3.738-8.333 8.333s3.738 8.333 8.333 8.333c4.595 0 8.333-3.738 8.333-8.333s-3.738-8.333-8.333-8.333zM11.999 14.502c0.552 0 0.999 0.447 0.999 0.999s-0.447 0.999-0.999 0.999c-0.552 0-0.999-0.447-0.999-0.999s0.447-0.999 0.999-0.999zM11.994 7c0.38-0 0.694 0.282 0.744 0.648l0.007 0.102 0.004 4.502c0 0.414-0.335 0.75-0.749 0.751-0.38 0-0.694-0.282-0.744-0.648l-0.007-0.102-0.004-4.502c-0-0.414 0.335-0.75 0.749-0.751z"></path>
</svg>
