<!-- Generated by IcoMoon.io -->
<svg version="1.1" xmlns="http://www.w3.org/2000/svg" width="24" height="24" viewBox="0 0 24 24">
<title>ic_ellipses_24_regular</title>
<path d="M7.75 12c0 0.966-0.783 1.75-1.75 1.75s-1.75-0.783-1.75-1.75c0-0.966 0.783-1.75 1.75-1.75s1.75 0.783 1.75 1.75zM13.75 12c0 0.966-0.783 1.75-1.75 1.75s-1.75-0.783-1.75-1.75c0-0.966 0.783-1.75 1.75-1.75s1.75 0.783 1.75 1.75zM18 13.75c0.966 0 1.75-0.783 1.75-1.75s-0.783-1.75-1.75-1.75c-0.966 0-1.75 0.783-1.75 1.75s0.783 1.75 1.75 1.75z"></path>
</svg>
