<!-- Generated by IcoMoon.io -->
<svg version="1.1" xmlns="http://www.w3.org/2000/svg" width="24" height="24" viewBox="0 0 24 24">
<title>ic_eyedropper_24_regular</title>
<path d="M21.030 2.97c-1.397-1.397-3.663-1.397-5.061 0l-1.97 1.97-0.013-0.013c-0.683-0.683-1.791-0.683-2.475 0l-0.586 0.586c-0.684 0.683-0.684 1.791 0 2.475l0.013 0.013-6.78 6.78c-0.422 0.422-0.659 0.994-0.659 1.591v0.687l-1.28 2.347c-0.836 1.533 0.842 3.21 2.374 2.374l2.347-1.28h0.687c0.597 0 1.169-0.237 1.591-0.659l6.78-6.78 0.012 0.012c0.684 0.684 1.791 0.684 2.475 0l0.586-0.586c0.683-0.684 0.683-1.791 0-2.475l-0.013-0.013 1.97-1.97c1.398-1.397 1.398-3.663 0-5.061zM17.030 4.031c0.812-0.812 2.128-0.812 2.939 0s0.812 2.128 0 2.939l-2.5 2.5c-0.293 0.293-0.293 0.768 0 1.061l0.543 0.543c0.098 0.098 0.098 0.256 0 0.354l-0.586 0.586c-0.098 0.098-0.256 0.098-0.354 0l-5.086-5.086c-0.098-0.098-0.098-0.256 0-0.354l0.586-0.586c0.098-0.098 0.256-0.098 0.354 0l0.543 0.543c0.293 0.293 0.768 0.293 1.061 0l2.5-2.5zM14.939 12l-6.78 6.78c-0.141 0.141-0.331 0.22-0.53 0.22h-0.879c-0.125 0-0.249 0.032-0.359 0.092l-2.515 1.372c-0.069 0.038-0.12 0.039-0.159 0.033-0.045-0.008-0.095-0.032-0.138-0.075s-0.067-0.093-0.075-0.138c-0.007-0.038-0.005-0.090 0.033-0.159l1.372-2.515c0.060-0.11 0.092-0.234 0.092-0.359v-0.879c0-0.199 0.079-0.39 0.22-0.53l6.78-6.78 2.939 2.939z"></path>
</svg>
