<!-- Generated by IcoMoon.io -->
<svg version="1.1" xmlns="http://www.w3.org/2000/svg" width="24" height="24" viewBox="0 0 24 24">
<title>ic_energise_24_regular</title>
<path d="M8.203 20.385c-0.22-0.336-0.091-0.766 0.288-0.961l4.34-2.232c0.379-0.195 0.865-0.081 1.086 0.255s0.091 0.766-0.288 0.961l-4.34 2.232c-0.379 0.195-0.865 0.081-1.085-0.255z"></path>
<path d="M12.313 2.51c0.368 0.183 0.478 0.612 0.246 0.959l-4.822 7.2c-0.232 0.347-0.719 0.48-1.087 0.297s-0.478-0.612-0.246-0.959l4.822-7.2c0.232-0.347 0.719-0.48 1.087-0.297z"></path>
<path d="M16.316 9.25c0.048 0.411-0.246 0.784-0.657 0.832l-8.5 1c-0.411 0.048-0.784-0.246-0.832-0.657s0.246-0.784 0.657-0.833l8.5-1c0.411-0.048 0.784 0.246 0.832 0.657z"></path>
<path d="M8.495 20.665c-0.38-0.169-0.511-0.59-0.293-0.939l6.681-10.695c0.218-0.35 0.704-0.496 1.084-0.327s0.511 0.59 0.293 0.939l-6.681 10.695c-0.218 0.35-0.704 0.496-1.084 0.327z"></path>
<path d="M8.995 20.763c-0.419 0.032-0.806-0.269-0.864-0.673l-0.624-4.344c-0.058-0.404 0.235-0.757 0.654-0.789s0.806 0.269 0.864 0.673l0.624 4.344c0.058 0.404-0.235 0.757-0.654 0.789z"></path>
</svg>
