<!-- Generated by IcoMoon.io -->
<svg version="1.1" xmlns="http://www.w3.org/2000/svg" width="24" height="24" viewBox="0 0 24 24">
<title>ic_experiment_24_regular</title>
<path d="M16 12c2.761 0 5-2.239 5-5s-2.239-5-5-5c-2.761 0-5 2.239-5 5 0 0.906 0.241 1.756 0.663 2.49l-2.714 1.808c-0.731-0.798-1.782-1.298-2.949-1.298-2.209 0-4 1.791-4 4s1.791 4 4 4c1.296 0 2.448-0.616 3.179-1.572l3.887 1.943c-0.043 0.203-0.066 0.413-0.066 0.629 0 1.657 1.343 3 3 3s3-1.343 3-3c0-1.657-1.343-3-3-3-0.903 0-1.713 0.399-2.263 1.030l-3.887-1.943c0.097-0.346 0.149-0.71 0.149-1.087 0-0.502-0.093-0.983-0.262-1.426l2.863-1.907c0.892 0.827 2.086 1.333 3.399 1.333zM16 10.5c-1.933 0-3.5-1.567-3.5-3.5s1.567-3.5 3.5-3.5c1.933 0 3.5 1.567 3.5 3.5s-1.567 3.5-3.5 3.5zM6 16.5c-1.381 0-2.5-1.119-2.5-2.5s1.119-2.5 2.5-2.5c1.381 0 2.5 1.119 2.5 2.5s-1.119 2.5-2.5 2.5zM17.5 19c0 0.828-0.672 1.5-1.5 1.5s-1.5-0.672-1.5-1.5c0-0.828 0.672-1.5 1.5-1.5s1.5 0.672 1.5 1.5z"></path>
</svg>
