<!-- Generated by IcoMoon.io -->
<svg version="1.1" xmlns="http://www.w3.org/2000/svg" width="24" height="24" viewBox="0 0 24 24">
<title>ic_edit_24_regular</title>
<path d="M20.952 3.048c-1.398-1.398-3.663-1.397-5.061 0l-11.95 11.951c-0.406 0.406-0.692 0.918-0.825 1.476l-1.096 4.602c-0.060 0.253 0.015 0.52 0.199 0.704s0.451 0.26 0.704 0.199l4.601-1.095c0.559-0.133 1.070-0.419 1.477-0.825l11.95-11.951c1.397-1.397 1.397-3.663-0-5.061zM16.952 4.109c0.812-0.812 2.128-0.812 2.939-0s0.812 2.128 0 2.939l-0.891 0.891-2.939-2.939 0.891-0.891zM15 6.061l2.939 2.939-9.998 9.999c-0.21 0.21-0.475 0.358-0.764 0.427l-3.416 0.813 0.813-3.416c0.069-0.289 0.216-0.553 0.427-0.763l9.998-9.999z"></path>
</svg>
