<!-- Generated by IcoMoon.io -->
<svg version="1.1" xmlns="http://www.w3.org/2000/svg" width="24" height="24" viewBox="0 0 24 24">
<title>ic_folder_open_24_regular</title>
<path d="M20.001 9.502v-0.752c0-1.243-1.007-2.25-2.25-2.25h-5.725l-2.381-1.98c-0.404-0.336-0.913-0.52-1.439-0.52h-3.956c-1.242 0-2.25 1.007-2.25 2.249l-0.004 11.5c-0 1.243 1.007 2.251 2.25 2.251h0.026c0.004 0 0.008 0 0.012 0h14.185c0.803 0 1.503-0.546 1.698-1.325l1.75-6.998c0.276-1.104-0.559-2.175-1.698-2.175h-0.219zM4.25 5.5h3.956c0.175 0 0.345 0.061 0.48 0.173l2.589 2.153c0.135 0.112 0.304 0.173 0.48 0.173h5.996c0.414 0 0.75 0.336 0.75 0.75v0.752h-12.076c-1.032 0-1.932 0.703-2.183 1.704l-0.744 2.977 0.003-7.934c0-0.414 0.336-0.75 0.75-0.75zM5.697 11.57c0.083-0.334 0.383-0.568 0.728-0.568h13.795c0.163 0 0.282 0.153 0.243 0.311l-1.75 6.998c-0.028 0.111-0.128 0.189-0.243 0.189h-14.185c-0.163 0-0.282-0.153-0.243-0.311l1.654-6.619z"></path>
</svg>
