<!-- Generated by IcoMoon.io -->
<svg version="1.1" xmlns="http://www.w3.org/2000/svg" width="24" height="24" viewBox="0 0 24 24">
<title>ic_flash_off_24_regular</title>
<path d="M5.939 7l-3.719-3.719c-0.293-0.293-0.293-0.768 0-1.061s0.768-0.293 1.061 0l18.5 18.5c0.293 0.293 0.293 0.768 0 1.061s-0.768 0.293-1.061 0l-6.283-6.284-5.851 6.039c-1.054 1.088-2.872 0.106-2.541-1.371l1.269-5.668-1.568-0.006c-1.207-0.005-2.047-1.2-1.642-2.337l1.836-5.154zM13.375 14.436l-6.262-6.262-1.597 4.483c-0.058 0.162 0.062 0.333 0.235 0.334l2.501 0.010c0.227 0.001 0.442 0.105 0.583 0.282s0.195 0.41 0.146 0.632l-1.473 6.578 5.868-6.056zM18.158 9.5l-2.695 2.781 1.061 1.061 3.122-3.222c0.768-0.793 0.206-2.12-0.898-2.12h-3.959l1.452-4.355c0.27-0.809-0.333-1.645-1.186-1.645h-6.454c-0.529 0-1 0.333-1.178 0.831l-0.371 1.041 1.174 1.174 0.551-1.546h5.93l-1.671 5.013c-0.076 0.229-0.038 0.48 0.103 0.676s0.367 0.311 0.608 0.311h4.409z"></path>
</svg>
