<!-- Generated by IcoMoon.io -->
<svg version="1.1" xmlns="http://www.w3.org/2000/svg" width="24" height="24" viewBox="0 0 24 24">
<title>ic_flash_24_regular</title>
<path d="M6.424 2.831c0.177-0.498 0.649-0.831 1.178-0.831h6.454c0.853 0 1.456 0.836 1.186 1.645l-1.452 4.355h3.959c1.104 0 1.666 1.327 0.898 2.12l-11.061 11.416c-1.054 1.088-2.872 0.106-2.541-1.371l1.269-5.668-1.568-0.006c-1.207-0.005-2.047-1.2-1.642-2.337l3.321-9.323zM7.778 3.5l-3.262 9.156c-0.058 0.162 0.062 0.333 0.235 0.334l2.501 0.010c0.227 0.001 0.442 0.105 0.583 0.282s0.195 0.41 0.146 0.632l-1.473 6.578 10.65-10.992h-4.409c-0.241 0-0.467-0.116-0.608-0.311s-0.179-0.447-0.103-0.676l1.671-5.013h-5.93z"></path>
</svg>
