<!-- Generated by IcoMoon.io -->
<svg version="1.1" xmlns="http://www.w3.org/2000/svg" width="24" height="24" viewBox="0 0 24 24">
<title>ic_file_lock_24_regular</title>
<path d="M18.5 20c0 0.275-0.224 0.5-0.5 0.5h-6v1c0 0.171-0.017 0.338-0.050 0.5h6.050c1.104 0 2-0.896 2-2v-10.172c0-0.53-0.211-1.039-0.586-1.414l-5.829-5.828c-0.015-0.015-0.032-0.028-0.049-0.041-0.012-0.010-0.025-0.019-0.036-0.029-0.071-0.064-0.141-0.127-0.219-0.18-0.025-0.017-0.053-0.031-0.081-0.044-0.016-0.008-0.032-0.016-0.048-0.024-0.017-0.009-0.033-0.019-0.050-0.029-0.054-0.031-0.109-0.063-0.166-0.087-0.197-0.082-0.409-0.123-0.624-0.138-0.020-0.001-0.039-0.004-0.059-0.007-0.027-0.004-0.054-0.007-0.082-0.007h-6.172c-1.104 0-2 0.896-2 2v7.551c0.41-0.418 0.924-0.734 1.5-0.906v-6.645c0-0.275 0.224-0.5 0.5-0.5h6v4.5c0 1.104 0.896 2 2 2h4.5v10zM13.5 4.621l3.878 3.879h-3.378c-0.276 0-0.5-0.225-0.5-0.5v-3.379zM4 15h-0.5c-0.828 0-1.5 0.672-1.5 1.5v5c0 0.828 0.672 1.5 1.5 1.5h6c0.828 0 1.5-0.672 1.5-1.5v-5c0-0.828-0.672-1.5-1.5-1.5h-0.5v-1c0-1.381-1.119-2.5-2.5-2.5s-2.5 1.119-2.5 2.5v1zM5.5 14c0-0.552 0.448-1 1-1s1 0.448 1 1v1h-2v-1zM7.5 19c0 0.552-0.448 1-1 1s-1-0.448-1-1c0-0.552 0.448-1 1-1s1 0.448 1 1z"></path>
</svg>
