<!-- Generated by IcoMoon.io -->
<svg version="1.1" xmlns="http://www.w3.org/2000/svg" width="24" height="24" viewBox="0 0 24 24">
<title>ic_globe_24_regular</title>
<path d="M12 1.998c5.524 0 10.002 4.478 10.002 10.002s-4.478 10.002-10.002 10.002c-5.524 0-10.002-4.478-10.002-10.002s4.478-10.002 10.002-10.002zM14.939 16.499h-5.878c0.652 2.414 1.785 4.002 2.939 4.002s2.287-1.588 2.939-4.002zM7.508 16.5l-2.723-0c0.958 1.533 2.392 2.739 4.094 3.411-0.522-0.82-0.953-1.846-1.27-3.015l-0.101-0.395zM19.214 16.5l-2.723 0c-0.324 1.334-0.791 2.5-1.373 3.411 1.597-0.63 2.957-1.729 3.91-3.127l0.185-0.284zM7.094 9.999h-3.358l-0.005 0.017c-0.152 0.636-0.233 1.3-0.233 1.983 0 1.056 0.193 2.067 0.545 3l3.173-0c-0.142-0.949-0.218-1.957-0.218-3 0-0.684 0.032-1.353 0.095-2.001zM15.397 9.999h-6.794c-0.068 0.64-0.105 1.31-0.105 2.001 0 1.059 0.086 2.070 0.24 3h6.524c0.154-0.93 0.24-1.941 0.24-3 0-0.691-0.037-1.36-0.105-2.001zM20.265 9.998l-3.358 0.001c0.063 0.647 0.095 1.317 0.095 2.001 0 1.043-0.075 2.051-0.218 3l3.173 0c0.352-0.933 0.544-1.944 0.544-3 0-0.689-0.082-1.36-0.237-2.001zM8.881 4.089l-0.023 0.009c-2.047 0.815-3.703 2.402-4.608 4.402l3.048 0c0.313-1.753 0.86-3.279 1.583-4.411zM12 3.498l-0.116 0.005c-1.265 0.116-2.488 2.118-3.056 4.996h6.343c-0.566-2.87-1.783-4.869-3.045-4.995l-0.126-0.006zM15.12 4.089l0.107 0.174c0.669 1.112 1.177 2.572 1.475 4.237l3.048-0c-0.865-1.911-2.416-3.446-4.339-4.289l-0.291-0.121z"></path>
</svg>
