<!-- Generated by IcoMoon.io -->
<svg version="1.1" xmlns="http://www.w3.org/2000/svg" width="24" height="24" viewBox="0 0 24 24">
<title>ic_glasses_24_regular</title>
<path d="M7.909 5h1.341c0.414 0 0.75 0.336 0.75 0.75 0 0.38-0.282 0.693-0.648 0.743l-0.102 0.007h-1.341c-0.175 0-0.343 0.061-0.477 0.171l-0.076 0.072-2.074 2.256 3.466 0.001c1.16 0 2.114 0.877 2.237 2.004h2.028c0.122-1.127 1.077-2.004 2.237-2.004l3.477-0.001-2.083-2.258c-0.118-0.128-0.277-0.21-0.448-0.234l-0.104-0.007h-1.346c-0.414 0-0.75-0.336-0.75-0.75 0-0.38 0.282-0.693 0.648-0.743l0.102-0.007h1.346c0.565 0 1.107 0.213 1.521 0.592l0.133 0.132 3.642 3.947c0.050 0.054 0.091 0.114 0.122 0.178 0.306 0.384 0.489 0.871 0.489 1.401v3.496c0 1.795-1.455 3.25-3.25 3.25h-2.499c-1.795 0-3.25-1.455-3.25-3.25l-0.001-2.242h-2.001l0.001 2.242c0 1.795-1.455 3.25-3.25 3.25h-2.499c-1.795 0-3.25-1.455-3.25-3.25v-3.496c0-0.562 0.206-1.075 0.546-1.469l0.038-0.055 0.044-0.052 3.624-3.945c0.383-0.417 0.909-0.673 1.469-0.72l0.188-0.008zM8.749 10.5h-4.499c-0.414 0-0.75 0.336-0.75 0.75v3.497c0 0.966 0.783 1.75 1.75 1.75h2.499c0.966 0 1.75-0.783 1.75-1.75v-3.497c0-0.414-0.336-0.75-0.75-0.75zM19.749 10.5h-4.499c-0.414 0-0.75 0.336-0.75 0.75v3.497c0 0.966 0.783 1.75 1.75 1.75h2.499c0.966 0 1.75-0.783 1.75-1.75v-3.497c0-0.414-0.336-0.75-0.75-0.75z"></path>
</svg>
