<!-- Generated by IcoMoon.io -->
<svg version="1.1" xmlns="http://www.w3.org/2000/svg" width="24" height="24" viewBox="0 0 24 24">
<title>ic_graph_24_regular</title>
<path d="M3 3.75c0-0.414 0.336-0.75 0.75-0.75s0.75 0.336 0.75 0.75v6.258l3.651-1.921c0.23-0.121 0.506-0.114 0.73 0.017l3.819 2.247 5.6-4.2c0.227-0.17 0.531-0.198 0.785-0.071s0.415 0.387 0.415 0.671v12.75h0.75c0.414 0 0.75 0.336 0.75 0.75s-0.336 0.75-0.75 0.75h-16.5c-0.414 0-0.75-0.336-0.75-0.75v-8.986c-0-0.009-0-0.018 0-0.027v-7.487zM4.5 11.703v7.797h13.5v-11.25l-4.8 3.6c-0.242 0.181-0.569 0.2-0.83 0.046l-3.89-2.288-3.98 2.095z"></path>
</svg>
