<!-- Generated by IcoMoon.io -->
<svg version="1.1" xmlns="http://www.w3.org/2000/svg" width="24" height="24" viewBox="0 0 24 24">
<title>ic_invalid_24_regular</title>
<path d="M12 4c-2.764 0-5 2.236-5 5 0 0.414 0.336 0.75 0.75 0.75s0.75-0.336 0.75-0.75c0-1.936 1.564-3.5 3.5-3.5s3.5 1.564 3.5 3.5c0 0.852-0.222 1.419-0.529 1.86-0.324 0.464-0.767 0.823-1.302 1.232-0.045 0.035-0.091 0.070-0.138 0.105-1.010 0.768-2.281 1.734-2.281 3.803v0.25c0 0.414 0.336 0.75 0.75 0.75s0.75-0.336 0.75-0.75v-0.25c0-1.317 0.714-1.863 1.785-2.682l0.045-0.035c0.528-0.404 1.147-0.888 1.62-1.565 0.489-0.701 0.799-1.57 0.799-2.719 0-2.764-2.236-5-5-5zM12 21c0.552 0 1-0.448 1-1s-0.448-1-1-1c-0.552 0-1 0.448-1 1s0.448 1 1 1z"></path>
</svg>
