<!-- Generated by IcoMoon.io -->
<svg version="1.1" xmlns="http://www.w3.org/2000/svg" width="24" height="24" viewBox="0 0 24 24">
<title>ic_image_24_regular</title>
<path d="M17.75 3c1.795 0 3.25 1.455 3.25 3.25v11.5c0 1.795-1.455 3.25-3.25 3.25h-11.5c-1.795 0-3.25-1.455-3.25-3.25v-11.5c0-1.795 1.455-3.25 3.25-3.25h11.5zM18.33 19.401l-5.806-5.687c-0.265-0.259-0.675-0.283-0.966-0.071l-0.084 0.071-5.807 5.686c0.182 0.064 0.378 0.099 0.582 0.099h11.5c0.204 0 0.399-0.035 0.581-0.099v0zM17.75 4.5h-11.5c-0.966 0-1.75 0.783-1.75 1.75v11.5c0 0.208 0.036 0.408 0.103 0.594l5.823-5.701c0.833-0.816 2.142-0.855 3.020-0.116l0.128 0.117 5.822 5.702c0.067-0.186 0.104-0.386 0.104-0.595v-11.5c0-0.966-0.783-1.75-1.75-1.75zM15.252 6.5c1.244 0 2.252 1.008 2.252 2.252s-1.008 2.252-2.252 2.252c-1.244 0-2.252-1.008-2.252-2.252s1.008-2.252 2.252-2.252zM15.252 8c-0.415 0-0.752 0.337-0.752 0.752s0.337 0.752 0.752 0.752c0.415 0 0.752-0.337 0.752-0.752s-0.337-0.752-0.752-0.752z"></path>
</svg>
