<!-- Generated by IcoMoon.io -->
<svg version="1.1" xmlns="http://www.w3.org/2000/svg" width="24" height="24" viewBox="0 0 24 24">
<title>ic_info_24_regular</title>
<path d="M12 1.998c5.524 0 10.002 4.478 10.002 10.002s-4.478 10.002-10.002 10.002c-5.524 0-10.002-4.478-10.002-10.002s4.478-10.002 10.002-10.002zM12 3.498c-4.695 0-8.502 3.806-8.502 8.502s3.806 8.502 8.502 8.502c4.695 0 8.502-3.806 8.502-8.502s-3.806-8.502-8.502-8.502zM11.996 10.499c0.38-0 0.694 0.282 0.744 0.648l0.007 0.102 0.004 5.502c0 0.414-0.335 0.75-0.75 0.75-0.38 0-0.694-0.282-0.744-0.648l-0.007-0.102-0.004-5.502c-0-0.414 0.335-0.75 0.75-0.75zM12 7.001c0.552 0 0.999 0.447 0.999 0.999s-0.447 0.999-0.999 0.999c-0.552 0-0.999-0.447-0.999-0.999s0.447-0.999 0.999-0.999z"></path>
</svg>
