<!-- Generated by IcoMoon.io -->
<svg version="1.1" xmlns="http://www.w3.org/2000/svg" width="24" height="24" viewBox="0 0 24 24">
<title>ic_limit_left_24_regular</title>
<path d="M21 12.25c0 0.414-0.336 0.75-0.75 0.75h-8.689l3.72 3.72c0.293 0.293 0.293 0.768 0 1.061s-0.768 0.293-1.061 0l-5-5c-0.293-0.293-0.293-0.768 0-1.061l5-5c0.293-0.293 0.768-0.293 1.061 0s0.293 0.768 0 1.061l-3.72 3.72h8.689c0.414 0 0.75 0.336 0.75 0.75zM5.25 5c1.243 0 2.25 1.007 2.25 2.25v10c0 1.243-1.007 2.25-2.25 2.25h-0.5c-0.414 0-0.75-0.336-0.75-0.75s0.336-0.75 0.75-0.75h0.5c0.414 0 0.75-0.336 0.75-0.75v-10c0-0.414-0.336-0.75-0.75-0.75h-0.5c-0.414 0-0.75-0.336-0.75-0.75s0.336-0.75 0.75-0.75h0.5z"></path>
</svg>
