<!-- Generated by IcoMoon.io -->
<svg version="1.1" xmlns="http://www.w3.org/2000/svg" width="24" height="24" viewBox="0 0 24 24">
<title>ic_link_24_regular</title>
<path d="M9.25 7c0.414 0 0.75 0.336 0.75 0.75 0 0.377-0.277 0.688-0.639 0.742l-0.111 0.008h-2.25c-1.933 0-3.5 1.567-3.5 3.5 0 1.864 1.457 3.388 3.294 3.494l0.206 0.006h2.25c0.414 0 0.75 0.336 0.75 0.75 0 0.377-0.277 0.688-0.639 0.742l-0.111 0.008h-2.25c-2.761 0-5-2.239-5-5 0-2.678 2.105-4.864 4.75-4.994l0.25-0.006h2.25zM17 7c2.761 0 5 2.239 5 5 0 2.678-2.105 4.864-4.75 4.994l-0.249 0.006h-2.25c-0.414 0-0.75-0.336-0.75-0.75 0-0.377 0.278-0.688 0.639-0.742l0.111-0.008h2.25c1.933 0 3.5-1.567 3.5-3.5 0-1.864-1.457-3.388-3.294-3.494l-0.206-0.006h-2.25c-0.414 0-0.75-0.336-0.75-0.75 0-0.377 0.277-0.688 0.639-0.742l0.111-0.008h2.25zM7 11.25h10c0.414 0 0.75 0.336 0.75 0.75 0 0.38-0.282 0.693-0.648 0.743l-0.102 0.007h-10c-0.414 0-0.75-0.336-0.75-0.75 0-0.38 0.282-0.693 0.648-0.743l0.102-0.007z"></path>
</svg>
