<!-- Generated by IcoMoon.io -->
<svg version="1.1" xmlns="http://www.w3.org/2000/svg" width="24" height="24" viewBox="0 0 24 24">
<title>ic_lock_closed_24_regular</title>
<path d="M12 15.5c0.828 0 1.5-0.672 1.5-1.5s-0.672-1.5-1.5-1.5c-0.828 0-1.5 0.672-1.5 1.5s0.672 1.5 1.5 1.5zM8 6c0-2.209 1.791-4 4-4s4 1.791 4 4v1h0.75c1.795 0 3.25 1.455 3.25 3.25v7.5c0 1.795-1.455 3.25-3.25 3.25h-9.5c-1.795 0-3.25-1.455-3.25-3.25v-7.5c0-1.795 1.455-3.25 3.25-3.25h0.75v-1zM12 3.5c-1.381 0-2.5 1.119-2.5 2.5v1h5v-1c0-1.381-1.119-2.5-2.5-2.5zM7.25 8.5c-0.966 0-1.75 0.783-1.75 1.75v7.5c0 0.966 0.783 1.75 1.75 1.75h9.5c0.966 0 1.75-0.783 1.75-1.75v-7.5c0-0.966-0.783-1.75-1.75-1.75h-9.5z"></path>
</svg>
