<!-- Generated by IcoMoon.io -->
<svg version="1.1" xmlns="http://www.w3.org/2000/svg" width="24" height="24" viewBox="0 0 24 24">
<title>ic_laser_source_24_regular</title>
<path d="M4.508 2.027c-0.415 0-0.751 0.336-0.751 0.751v2.882c0 0.882 0.46 1.656 1.153 2.095v0.786c0 1.052 0.852 1.904 1.904 1.904h4.436v3.859c0 0.415 0.336 0.751 0.751 0.751s0.751-0.336 0.751-0.751v-3.859h4.436c1.052 0 1.904-0.852 1.904-1.904v-0.786c0.693-0.44 1.153-1.214 1.153-2.095v-2.882c0-0.415-0.336-0.751-0.751-0.751s-0.751 0.336-0.751 0.751v2.882c0 0.54-0.438 0.978-0.978 0.978h-11.526c-0.54 0-0.978-0.438-0.978-0.978v-2.882c0-0.415-0.336-0.751-0.751-0.751zM6.412 8.542v-0.401h11.176v0.401c0 0.222-0.18 0.401-0.401 0.401h-10.374c-0.222 0-0.401-0.18-0.401-0.401z"></path>
<path d="M6.813 15.859c-0.415 0-0.751 0.336-0.751 0.751s0.336 0.751 0.751 0.751h1.729c0.415 0 0.751-0.336 0.751-0.751s-0.336-0.751-0.751-0.751h-1.729z"></path>
<path d="M12 15.859c-0.415 0-0.751 0.336-0.751 0.751s0.336 0.751 0.751 0.751c0.415 0 0.751-0.336 0.751-0.751s-0.336-0.751-0.751-0.751z"></path>
<path d="M15.458 15.859c-0.415 0-0.751 0.336-0.751 0.751s0.336 0.751 0.751 0.751h1.729c0.415 0 0.751-0.336 0.751-0.751s-0.336-0.751-0.751-0.751h-1.729z"></path>
<path d="M10.802 17.232c-0.293-0.293-0.769-0.293-1.063 0l-1.729 1.729c-0.293 0.293-0.293 0.769 0 1.062s0.769 0.293 1.063 0l1.729-1.729c0.293-0.293 0.293-0.769 0-1.062z"></path>
<path d="M14.26 17.232c-0.294-0.293-0.769-0.293-1.063 0s-0.293 0.769 0 1.062l1.729 1.729c0.293 0.293 0.769 0.293 1.062 0s0.293-0.769 0-1.062l-1.729-1.729z"></path>
<path d="M12 18.165c-0.415 0-0.751 0.336-0.751 0.751v2.305c0 0.415 0.336 0.751 0.751 0.751s0.751-0.336 0.751-0.751v-2.305c0-0.415-0.336-0.751-0.751-0.751z"></path>
</svg>
