<!-- Generated by IcoMoon.io -->
<svg version="1.1" xmlns="http://www.w3.org/2000/svg" width="24" height="24" viewBox="0 0 24 24">
<title>ic_laser_crystal_24_regular</title>
<path d="M17.999 3c0.241 0 0.465 0.115 0.605 0.306l0.055 0.086 3.264 6.028 0.038 0.093 0.012 0.040 0.020 0.102 0.006 0.094c0 0.069-0.009 0.136-0.027 0.199l-0.047 0.126-0.038 0.069c-0.022 0.036-0.047 0.070-0.075 0.102l0.060-0.077-0.024 0.034-9.25 10.506c-0.080 0.106-0.183 0.184-0.297 0.232l-0.098 0.033-0.077 0.017-0.124 0.010-0.1-0.007-0.118-0.025c-0.060-0.017-0.119-0.043-0.174-0.076l-0.009-0.008c-0.047-0.028-0.091-0.063-0.131-0.103l-9.315-10.579-0.040-0.059c-0.055-0.090-0.093-0.192-0.106-0.301l-0.006-0.093 0.003-0.066 0.013-0.089c0.006-0.030 0.014-0.059 0.024-0.087l0.023-0.059 0.028-0.057 3.249-6c0.115-0.212 0.323-0.354 0.558-0.386l0.102-0.007h12zM14.997 10.5h-5.999l3.001 7.687 2.998-7.687zM7.389 10.5h-2.98l5.351 6.074-2.371-6.074zM19.587 10.5h-2.979l-2.368 6.070 5.347-6.070zM8.971 4.5h-2.526l-2.438 4.5h3.524l1.44-4.5zM13.451 4.5h-2.905l-1.441 4.5h5.785l-1.439-4.5zM17.552 4.5h-2.526l1.44 4.5h3.522l-2.436-4.5z"></path>
</svg>
