<!-- Generated by IcoMoon.io -->
<svg version="1.1" xmlns="http://www.w3.org/2000/svg" width="24" height="24" viewBox="0 0 24 24">
<title>ic_limit_right_24_regular</title>
<path d="M4 12.25c0-0.414 0.336-0.75 0.75-0.75h8.689l-3.72-3.72c-0.293-0.293-0.293-0.768 0-1.061s0.768-0.293 1.061 0l5 5c0.293 0.293 0.293 0.768 0 1.061l-5 5c-0.293 0.293-0.768 0.293-1.061 0s-0.293-0.768 0-1.061l3.72-3.72h-8.689c-0.414 0-0.75-0.336-0.75-0.75zM19.75 19.5c-1.243 0-2.25-1.007-2.25-2.25v-10c0-1.243 1.007-2.25 2.25-2.25h0.5c0.414 0 0.75 0.336 0.75 0.75s-0.336 0.75-0.75 0.75h-0.5c-0.414 0-0.75 0.336-0.75 0.75v10c0 0.414 0.336 0.75 0.75 0.75h0.5c0.414 0 0.75 0.336 0.75 0.75s-0.336 0.75-0.75 0.75h-0.5z"></path>
</svg>
