<!-- Generated by IcoMoon.io -->
<svg version="1.1" xmlns="http://www.w3.org/2000/svg" width="24" height="24" viewBox="0 0 24 24">
<title>ic_lock_open_24_regular</title>
<path d="M16 5c0-1.381 1.119-2.5 2.5-2.5s2.5 1.119 2.5 2.5v0.25c0 0.414 0.336 0.75 0.75 0.75s0.75-0.336 0.75-0.75v-0.25c0-2.209-1.791-4-4-4s-4 1.791-4 4v2h-7.25c-1.795 0-3.25 1.455-3.25 3.25v7.5c0 1.795 1.455 3.25 3.25 3.25h9.5c1.795 0 3.25-1.455 3.25-3.25v-7.5c0-1.795-1.455-3.25-3.25-3.25h-0.75v-2zM7.25 8.5h9.5c0.966 0 1.75 0.783 1.75 1.75v7.5c0 0.966-0.783 1.75-1.75 1.75h-9.5c-0.966 0-1.75-0.783-1.75-1.75v-7.5c0-0.966 0.783-1.75 1.75-1.75zM12 15.5c0.828 0 1.5-0.672 1.5-1.5s-0.672-1.5-1.5-1.5c-0.828 0-1.5 0.672-1.5 1.5s0.672 1.5 1.5 1.5z"></path>
</svg>
