<!-- Generated by IcoMoon.io -->
<svg version="1.1" xmlns="http://www.w3.org/2000/svg" width="24" height="24" viewBox="0 0 24 24">
<title>ic_maximize_24_regular</title>
<path d="M12.748 3.002l7.554 0.001 0.1 0.014 0.099 0.028 0.061 0.026c0.079 0.035 0.153 0.085 0.218 0.15l0.041 0.044 0.060 0.081 0.037 0.065 0.039 0.090 0.019 0.064 0.014 0.064 0.009 0.093 0.001 7.533c0 0.414-0.336 0.75-0.75 0.75-0.38 0-0.693-0.282-0.743-0.648l-0.007-0.102-0.001-5.696-13.94 13.945 5.691 0.001c0.38 0 0.693 0.282 0.743 0.648l0.007 0.102c0 0.38-0.282 0.693-0.648 0.743l-0.102 0.007-7.565-0.004c-0.066-0.005-0.129-0.018-0.188-0.039l-0.090-0.039-0.017-0.010c-0.204-0.11-0.351-0.314-0.384-0.553l-0.007-0.105v-7.504c0-0.414 0.336-0.75 0.75-0.75 0.38 0 0.693 0.282 0.743 0.648l0.007 0.102v5.692l13.94-13.943-5.69 0.001c-0.38 0-0.693-0.282-0.743-0.648l-0.007-0.102c0-0.38 0.282-0.693 0.648-0.743l0.102-0.007z"></path>
</svg>
