<!-- Generated by IcoMoon.io -->
<svg version="1.1" xmlns="http://www.w3.org/2000/svg" width="24" height="24" viewBox="0 0 24 24">
<title>ic_maintenance_24_regular</title>
<path d="M16.25 2c-0.284 0-0.544 0.161-0.671 0.415l-1 2c-0.112 0.224-0.105 0.49 0.020 0.708l0.901 1.577v5.301h-0.75c-0.414 0-0.75 0.336-0.75 0.75v5.75c0 1.933 1.567 3.5 3.5 3.5s3.5-1.567 3.5-3.5v-5.75c0-0.414-0.336-0.75-0.75-0.75h-0.75v-5.301l0.901-1.577c0.124-0.218 0.132-0.483 0.020-0.708l-1-2c-0.127-0.254-0.387-0.415-0.671-0.415h-2.5zM18 12h-1v-5.5c0-0.131-0.034-0.259-0.099-0.372l-0.801-1.401 0.613-1.226h1.573l0.613 1.226-0.801 1.401c-0.065 0.113-0.099 0.242-0.099 0.372v5.5zM15.5 18.5v-2.5h4v2.5c0 1.105-0.895 2-2 2s-2-0.895-2-2zM19.5 14.5h-4v-1h4v1zM9.526 2.136c-0.231-0.092-0.492-0.063-0.698 0.077s-0.329 0.372-0.329 0.62v3.667c0 0.552-0.448 1-1 1s-1-0.448-1-1v-3.667c0-0.248-0.123-0.481-0.329-0.62s-0.467-0.168-0.698-0.077c-2.033 0.806-3.473 2.791-3.473 5.114 0 2.124 1.204 3.965 2.964 4.882v7.332c0 1.4 1.135 2.536 2.536 2.536s2.536-1.135 2.536-2.536v-7.332c1.76-0.916 2.964-2.758 2.964-4.882 0-2.323-1.44-4.308-3.474-5.114zM10 6.5v-2.373c0.915 0.733 1.5 1.86 1.5 3.123 0 1.676-1.031 3.113-2.496 3.708-0.283 0.115-0.468 0.39-0.468 0.695v7.811c0 0.572-0.464 1.036-1.036 1.036s-1.036-0.464-1.036-1.036v-7.811c0-0.305-0.185-0.58-0.468-0.695-1.465-0.595-2.496-2.032-2.496-3.708 0-1.262 0.585-2.389 1.5-3.123v2.373c0 1.381 1.119 2.5 2.5 2.5s2.5-1.119 2.5-2.5z"></path>
</svg>
