<!-- Generated by IcoMoon.io -->
<svg version="1.1" xmlns="http://www.w3.org/2000/svg" width="24" height="24" viewBox="0 0 24 24">
<title>ic_menu_24_regular</title>
<path d="M2.753 18h18.5c0.414 0 0.75 0.336 0.75 0.75 0 0.38-0.282 0.693-0.648 0.743l-0.102 0.007h-18.5c-0.414 0-0.75-0.336-0.75-0.75 0-0.38 0.282-0.693 0.648-0.743l0.102-0.007zM2.753 11.503h18.5c0.414 0 0.75 0.336 0.75 0.75 0 0.38-0.282 0.693-0.648 0.743l-0.102 0.007h-18.5c-0.414 0-0.75-0.336-0.75-0.75 0-0.38 0.282-0.693 0.648-0.743l0.102-0.007zM2.752 5.003h18.5c0.414 0 0.75 0.336 0.75 0.75 0 0.38-0.282 0.693-0.648 0.743l-0.102 0.007h-18.5c-0.414 0-0.75-0.336-0.75-0.75 0-0.38 0.282-0.693 0.648-0.743l0.102-0.007z"></path>
</svg>
