<!-- Generated by IcoMoon.io -->
<svg version="1.1" xmlns="http://www.w3.org/2000/svg" width="24" height="24" viewBox="0 0 24 24">
<title>ic_minimize_24_regular</title>
<path d="M21.778 2.222c0.266 0.266 0.29 0.683 0.073 0.977l-0.072 0.084-6.223 6.224 5.693 0.001c0.38 0 0.693 0.282 0.743 0.648l0.007 0.102c0 0.38-0.282 0.693-0.648 0.743l-0.102 0.007-7.565-0.004c-0.068-0.005-0.134-0.020-0.195-0.042l-0.098-0.045c-0.205-0.11-0.352-0.314-0.386-0.554l-0.007-0.105v-7.504c0-0.414 0.336-0.75 0.75-0.75 0.38 0 0.693 0.282 0.743 0.648l0.007 0.102-0 5.691 6.222-6.222c0.293-0.293 0.767-0.293 1.060-0zM11.002 13.754v7.504c0 0.414-0.336 0.75-0.75 0.75-0.38 0-0.693-0.282-0.743-0.648l-0.007-0.102-0-5.695-6.222 6.216c-0.293 0.293-0.768 0.293-1.061 0-0.266-0.266-0.291-0.683-0.073-0.976l0.073-0.084 6.22-6.214-5.689 0c-0.38 0-0.693-0.282-0.743-0.648l-0.007-0.102c0-0.414 0.336-0.75 0.75-0.75l7.554 0.002 0.074 0.009 0.098 0.023 0.053 0.019 0.086 0.041 0.088 0.057c0.056 0.042 0.106 0.092 0.148 0.148l0.067 0.106 0.041 0.093 0.021 0.071 0.011 0.055 0.006 0.058 0.001-0.009 0.004 0.077z"></path>
</svg>
