<!-- Generated by IcoMoon.io -->
<svg version="1.1" xmlns="http://www.w3.org/2000/svg" width="24" height="24" viewBox="0 0 24 24">
<title>ic_not_connected_24_regular</title>
<path d="M3.28 2.22c-0.293-0.293-0.768-0.293-1.061-0s-0.293 0.768-0 1.061l4.634 4.634c-0.381 0.635-0.649 1.346-0.774 2.105-2.288 0.212-4.080 2.137-4.080 4.481 0 2.485 2.015 4.5 4.5 4.5h11c0.141 0 0.282-0.006 0.42-0.019l2.8 2.8c0.293 0.293 0.768 0.293 1.061 0s0.293-0.768 0-1.061l-18.5-18.5zM16.439 17.5h-9.939c-1.657 0-3-1.343-3-3s1.343-3 3-3h0.256c0.401 0 0.73-0.315 0.749-0.715 0.030-0.631 0.189-1.229 0.453-1.766l8.481 8.481zM20.5 14.5c0 0.782-0.299 1.494-0.79 2.028l1.061 1.061c0.762-0.806 1.228-1.893 1.228-3.090 0-2.344-1.791-4.269-4.080-4.481-0.468-2.848-2.94-5.019-5.92-5.019-1.097 0-2.125 0.294-3.010 0.808l1.111 1.111c0.577-0.269 1.22-0.419 1.899-0.419 2.413 0 4.383 1.9 4.495 4.285 0.019 0.4 0.349 0.715 0.749 0.715h0.256c1.657 0 3 1.343 3 3z"></path>
</svg>
