<!-- Generated by IcoMoon.io -->
<svg version="1.1" xmlns="http://www.w3.org/2000/svg" width="24" height="24" viewBox="0 0 24 24">
<title>ic_network_switch_24_regular</title>
<path d="M6.25 3.5c-0.966 0-1.75 0.783-1.75 1.75v2.5c0 0.966 0.783 1.75 1.75 1.75h2.5c0.966 0 1.75-0.783 1.75-1.75v-2.5c0-0.966-0.783-1.75-1.75-1.75h-2.5zM13.5 5.25c0-0.966 0.783-1.75 1.75-1.75h2.5c0.966 0 1.75 0.783 1.75 1.75v2.5c0 0.966-0.783 1.75-1.75 1.75h-2.5c-0.966 0-1.75-0.783-1.75-1.75v-2.5zM15.25 5c-0.138 0-0.25 0.112-0.25 0.25v2.5c0 0.138 0.112 0.25 0.25 0.25h2.5c0.138 0 0.25-0.112 0.25-0.25v-2.5c0-0.138-0.112-0.25-0.25-0.25h-2.5zM7 17.5c0.828 0 1.5-0.672 1.5-1.5s-0.672-1.5-1.5-1.5c-0.828 0-1.5 0.672-1.5 1.5s0.672 1.5 1.5 1.5zM13.5 16c0 0.828-0.672 1.5-1.5 1.5s-1.5-0.672-1.5-1.5c0-0.828 0.672-1.5 1.5-1.5s1.5 0.672 1.5 1.5zM17 17.5c0.828 0 1.5-0.672 1.5-1.5s-0.672-1.5-1.5-1.5c-0.828 0-1.5 0.672-1.5 1.5s0.672 1.5 1.5 1.5zM2 16c0-2.485 2.015-4.5 4.5-4.5h11c2.485 0 4.5 2.015 4.5 4.5s-2.015 4.5-4.5 4.5h-11c-2.485 0-4.5-2.015-4.5-4.5zM6.5 13c-1.657 0-3 1.343-3 3s1.343 3 3 3h11c1.657 0 3-1.343 3-3s-1.343-3-3-3h-11z"></path>
</svg>
