<!-- Generated by IcoMoon.io -->
<svg version="1.1" xmlns="http://www.w3.org/2000/svg" width="24" height="24" viewBox="0 0 24 24">
<title>ic_pin_24_regular</title>
<path d="M16.242 2.932l4.826 4.826c1.327 1.327 0.964 3.565-0.715 4.404l-4.871 2.435c-0.175 0.088-0.309 0.241-0.373 0.426l-1.439 4.166c-0.302 0.873-1.413 1.129-2.065 0.476l-3.104-3.105-4.439 4.439h-1.061l0-1.061 4.439-4.439-3.104-3.105c-0.653-0.653-0.397-1.764 0.476-2.065l4.166-1.439c0.185-0.064 0.338-0.198 0.426-0.373l2.435-4.871c0.84-1.679 3.077-2.042 4.404-0.715zM20.008 8.818l-4.826-4.826c-0.603-0.603-1.62-0.438-2.002 0.325l-2.435 4.871c-0.263 0.526-0.722 0.928-1.278 1.12l-3.789 1.309 6.704 6.705 1.309-3.789c0.192-0.556 0.594-1.015 1.12-1.278l4.871-2.436c0.763-0.381 0.928-1.399 0.325-2.002z"></path>
</svg>
