<!-- Generated by IcoMoon.io -->
<svg version="1.1" xmlns="http://www.w3.org/2000/svg" width="24" height="24" viewBox="0 0 24 24">
<title>ic_pin_off_24_regular</title>
<path d="M3.28 2.22c-0.293-0.293-0.768-0.293-1.061 0s-0.293 0.768 0 1.061l5.905 5.905-3.314 1.145c-0.873 0.301-1.129 1.413-0.476 2.065l3.105 3.105-4.439 4.439-0 1.061h1.061l4.439-4.439 3.105 3.105c0.653 0.653 1.764 0.397 2.065-0.476l1.145-3.314 5.905 5.905c0.293 0.293 0.768 0.293 1.061 0s0.293-0.768 0-1.061l-18.5-18.5zM13.635 14.696l-1.253 3.626-6.705-6.704 3.626-1.253 4.331 4.331zM19.683 10.82l-3.787 1.894 1.118 1.118 3.34-1.67c1.679-0.839 2.042-3.077 0.715-4.404l-4.826-4.826c-1.327-1.327-3.565-0.964-4.404 0.715l-1.67 3.34 1.118 1.118 1.894-3.787c0.382-0.763 1.399-0.928 2.002-0.325l4.826 4.826c0.603 0.603 0.438 1.62-0.325 2.002z"></path>
</svg>
