<!-- Generated by IcoMoon.io -->
<svg version="1.1" xmlns="http://www.w3.org/2000/svg" width="24" height="24" viewBox="0 0 24 24">
<title>ic_person_24_regular</title>
<path d="M17.754 14c1.242 0 2.249 1.007 2.249 2.249v0.575c0 0.894-0.32 1.759-0.901 2.439-1.569 1.833-3.957 2.738-7.102 2.738s-5.532-0.905-7.098-2.739c-0.58-0.679-0.898-1.542-0.898-2.435v-0.578c0-1.242 1.007-2.249 2.249-2.249h11.502zM17.754 15.5h-11.502c-0.414 0-0.749 0.335-0.749 0.749v0.578c0 0.536 0.191 1.054 0.539 1.461 1.253 1.468 3.219 2.214 5.958 2.214s4.706-0.746 5.962-2.214c0.349-0.408 0.541-0.927 0.541-1.463v-0.575c0-0.414-0.335-0.749-0.749-0.749zM12 2.005c2.761 0 5 2.239 5 5s-2.239 5-5 5c-2.761 0-5-2.239-5-5s2.239-5 5-5zM12 3.505c-1.933 0-3.5 1.567-3.5 3.5s1.567 3.5 3.5 3.5c1.933 0 3.5-1.567 3.5-3.5s-1.567-3.5-3.5-3.5z"></path>
</svg>
