<!-- Generated by IcoMoon.io -->
<svg version="1.1" xmlns="http://www.w3.org/2000/svg" width="24" height="24" viewBox="0 0 24 24">
<title>ic_refresh_24_regular</title>
<path d="M12 4.5c-4.142 0-7.5 3.358-7.5 7.5s3.358 7.5 7.5 7.5c4.142 0 7.5-3.358 7.5-7.5 0-0.376-0.028-0.746-0.081-1.108-0.067-0.454 0.265-0.892 0.724-0.892 0.371 0 0.696 0.256 0.752 0.623 0.069 0.449 0.105 0.909 0.105 1.377 0 4.971-4.029 9-9 9s-9-4.029-9-9c0-4.971 4.029-9 9-9 2.305 0 4.408 0.867 6 2.292v-1.042c0-0.414 0.336-0.75 0.75-0.75s0.75 0.336 0.75 0.75v3c0 0.414-0.336 0.75-0.75 0.75h-3c-0.414 0-0.75-0.336-0.75-0.75s0.336-0.75 0.75-0.75h1.349c-1.338-1.241-3.13-2-5.099-2z"></path>
</svg>
