<!-- Generated by IcoMoon.io -->
<svg version="1.1" xmlns="http://www.w3.org/2000/svg" width="24" height="24" viewBox="0 0 24 24">
<title>ic_restore_down_24_regular</title>
<path d="M7.518 5h-1.508c0.128-1.678 1.53-3 3.241-3h8c2.623 0 4.75 2.127 4.75 4.75v8c0 1.711-1.322 3.113-3 3.24v-1.508c0.848-0.121 1.5-0.851 1.5-1.732v-8c0-1.795-1.455-3.25-3.25-3.25h-8c-0.882 0-1.611 0.652-1.732 1.5zM5.25 6c-1.795 0-3.25 1.455-3.25 3.25v9.5c0 1.795 1.455 3.25 3.25 3.25h9.5c1.795 0 3.25-1.455 3.25-3.25v-9.5c0-1.795-1.455-3.25-3.25-3.25h-9.5zM3.5 9.25c0-0.966 0.784-1.75 1.75-1.75h9.5c0.966 0 1.75 0.783 1.75 1.75v9.5c0 0.966-0.783 1.75-1.75 1.75h-9.5c-0.967 0-1.75-0.783-1.75-1.75v-9.5z"></path>
</svg>
