<!-- Generated by IcoMoon.io -->
<svg version="1.1" xmlns="http://www.w3.org/2000/svg" width="24" height="24" viewBox="0 0 24 24">
<title>ic_remote_control_24_regular</title>
<path d="M4.094 5.346c0.331-1.376 1.562-2.346 2.978-2.346h9.858c1.416 0 2.647 0.97 2.978 2.346l1.992 8.273c0.538 2.233-1.155 4.381-3.452 4.381h-7.947v-1.5h7.947c1.326 0 2.304-1.24 1.993-2.53l-1.992-8.273c-0.169-0.702-0.797-1.197-1.519-1.197h-9.858c-0.722 0-1.35 0.495-1.519 1.197l-0.675 2.803h-1.128c-0.144 0-0.285 0.011-0.423 0.032l0.767-3.187zM10.49 20.5h6.762c0.414 0 0.75-0.336 0.75-0.75s-0.336-0.75-0.75-0.75h-6.75v1.25c0 0.084-0.004 0.168-0.011 0.25zM5.751 14.5c0.69 0 1.25-0.56 1.25-1.25s-0.56-1.25-1.25-1.25c-0.69 0-1.25 0.56-1.25 1.25s0.56 1.25 1.25 1.25zM2 11.25c0-0.966 0.784-1.75 1.75-1.75h4.001c0.967 0 1.75 0.783 1.75 1.75v9c0 0.966-0.784 1.75-1.75 1.75h-4.001c-0.967 0-1.75-0.783-1.75-1.75v-9zM3.75 11c-0.138 0-0.25 0.112-0.25 0.25v9c0 0.138 0.112 0.25 0.25 0.25h4.001c0.138 0 0.25-0.112 0.25-0.25v-9c0-0.138-0.112-0.25-0.25-0.25h-4.001z"></path>
</svg>
