<!-- Generated by IcoMoon.io -->
<svg version="1.1" xmlns="http://www.w3.org/2000/svg" width="24" height="24" viewBox="0 0 24 24">
<title>ic_swap_24_regular</title>
<path d="M16.306 19.333c0 0.368 0.253 0.667 0.566 0.667s0.566-0.298 0.566-0.667v-12.929l2.264 3.096c0.209 0.274 0.9 0.746 1.132 0.5s0.209-0.726 0-1l-3.542-4.779c-0.107-0.14-0.26-0.221-0.421-0.221s-0.313 0.080-0.421 0.221l-3.542 4.779c-0.209 0.274-0.232 0.754 0 1s0.923-0.226 1.132-0.5l2.264-3.096v12.929z"></path>
<path d="M7.694 4.667c0-0.368-0.253-0.667-0.566-0.667s-0.566 0.298-0.566 0.667v12.929l-2.264-3.096c-0.209-0.274-0.9-0.746-1.132-0.5s-0.209 0.726 0 1l3.542 4.779c0.107 0.141 0.26 0.221 0.421 0.221s0.313-0.080 0.421-0.221l3.542-4.779c0.209-0.274 0.232-0.754 0-1s-0.923 0.226-1.132 0.5l-2.264 3.096v-12.929z"></path>
</svg>
