<!-- Generated by IcoMoon.io -->
<svg version="1.1" xmlns="http://www.w3.org/2000/svg" width="24" height="24" viewBox="0 0 24 24">
<title>ic_sample_24_regular</title>
<path d="M8 4.5h1v6.238c0 0.375-0.094 0.744-0.273 1.074l-3.585 6.603c-0.633 1.166 0.211 2.585 1.538 2.585h10.639c1.327 0 2.171-1.419 1.538-2.585l-3.585-6.603c-0.179-0.33-0.273-0.699-0.273-1.074v-6.238h1c0.414 0 0.75-0.336 0.75-0.75s-0.336-0.75-0.75-0.75h-8c-0.414 0-0.75 0.336-0.75 0.75s0.336 0.75 0.75 0.75zM10.5 10.738v-6.238h3v6.238c0 0.625 0.156 1.24 0.454 1.789l0.799 1.473h-5.507l0.8-1.473c0.298-0.549 0.454-1.164 0.454-1.789zM8.432 15.5h7.136l1.971 3.631c0.090 0.167-0.030 0.369-0.22 0.369h-10.639c-0.19 0-0.31-0.203-0.22-0.369l1.971-3.631z"></path>
</svg>
