<!-- Generated by IcoMoon.io -->
<svg version="1.1" xmlns="http://www.w3.org/2000/svg" width="24" height="24" viewBox="0 0 24 24">
<title>ic_search_24_regular</title>
<path d="M10 2.75c4.004 0 7.25 3.246 7.25 7.25 0 1.732-0.607 3.322-1.62 4.569l4.901 4.901c0.293 0.293 0.293 0.768 0 1.061-0.266 0.266-0.683 0.291-0.977 0.073l-0.084-0.073-4.901-4.901c-1.247 1.013-2.837 1.62-4.569 1.62-4.004 0-7.25-3.246-7.25-7.25s3.246-7.25 7.25-7.25zM10 4.25c-3.176 0-5.75 2.574-5.75 5.75s2.574 5.75 5.75 5.75c3.176 0 5.75-2.574 5.75-5.75s-2.574-5.75-5.75-5.75z"></path>
</svg>
