<!-- Generated by IcoMoon.io -->
<svg version="1.1" xmlns="http://www.w3.org/2000/svg" width="24" height="24" viewBox="0 0 24 24">
<title>ic_shutter_24_regular</title>
<path d="M12 2c5.523 0 10 4.477 10 10s-4.477 10-10 10c-5.523 0-10-4.477-10-10s4.477-10 10-10zM15.25 14.332l-0.039 0.072-0.064 0.091-4.757 5.853c0.521 0.1 1.059 0.152 1.609 0.152 2.171 0 4.152-0.814 5.654-2.153l-2.084-4.541c-0.093 0.184-0.2 0.36-0.32 0.526zM4.49 15.985c0.937 1.761 2.475 3.154 4.34 3.904l3.161-3.889-0.191-0.005-0.131-0.009-7.179-0.001zM20.13 9.512h-4.998c0.082 0.103 0.158 0.209 0.23 0.32 0.024 0.027 0.047 0.057 0.067 0.089l0.049 0.090 0.039 0.082c0.086 0.158 0.162 0.323 0.226 0.494l3.016 6.569c1.092-1.43 1.741-3.217 1.741-5.155 0-0.866-0.129-1.701-0.37-2.488zM3.5 12c0 0.865 0.129 1.7 0.369 2.486h4.997c-0.082-0.103-0.159-0.21-0.23-0.321l-0.135-0.222-3.614-6.598c-0.877 1.337-1.387 2.936-1.387 4.655zM10.020 10.474l-0.044 0.072c-0.022 0.034-0.046 0.066-0.072 0.095-0.256 0.391-0.403 0.858-0.403 1.359 0 1.294 0.984 2.359 2.244 2.487h0.512c1.26-0.128 2.244-1.193 2.244-2.487 0-1.302-0.994-2.371-2.265-2.489l-0.373 0.002-0.058-0.005c-0.726 0.056-1.365 0.422-1.785 0.966zM12 3.5c-2.391 0-4.552 0.988-6.097 2.577l2.402 4.387c0.127-0.305 0.29-0.59 0.485-0.851l3.904-6.085c-0.229-0.018-0.46-0.028-0.694-0.028zM11.594 8.020c0.133-0.013 0.269-0.020 0.406-0.020 0.103 0 0.204 0.004 0.305 0.011l7.204 0.001c-1.033-1.941-2.796-3.434-4.923-4.112l-0.292-0.087-2.699 4.208z"></path>
</svg>
