<!-- Generated by IcoMoon.io -->
<svg version="1.1" xmlns="http://www.w3.org/2000/svg" width="24" height="24" viewBox="0 0 24 24">
<title>ic_server_24_regular</title>
<path d="M9.25 6c-0.414 0-0.75 0.336-0.75 0.75s0.336 0.75 0.75 0.75h5.5c0.414 0 0.75-0.336 0.75-0.75s-0.336-0.75-0.75-0.75h-5.5zM8.5 17.75c0-0.414 0.336-0.75 0.75-0.75h5.5c0.414 0 0.75 0.336 0.75 0.75s-0.336 0.75-0.75 0.75h-5.5c-0.414 0-0.75-0.336-0.75-0.75zM9.25 14c-0.414 0-0.75 0.336-0.75 0.75s0.336 0.75 0.75 0.75h5.5c0.414 0 0.75-0.336 0.75-0.75s-0.336-0.75-0.75-0.75h-5.5zM6 5c0-1.657 1.343-3 3-3h6c1.657 0 3 1.343 3 3v14c0 1.657-1.343 3-3 3h-6c-1.657 0-3-1.343-3-3v-14zM9 3.5c-0.828 0-1.5 0.672-1.5 1.5v14c0 0.828 0.672 1.5 1.5 1.5h6c0.828 0 1.5-0.672 1.5-1.5v-14c0-0.828-0.672-1.5-1.5-1.5h-6z"></path>
</svg>
