<!-- Generated by IcoMoon.io -->
<svg version="1.1" xmlns="http://www.w3.org/2000/svg" width="24" height="24" viewBox="0 0 24 24">
<title>ic_sign_out_24_regular</title>
<path d="M21.786 11.47l-4.385-4.5c-0.285-0.293-0.748-0.293-1.034 0s-0.285 0.768 0 1.061l3.137 3.22h-9.928c-0.404 0-0.731 0.336-0.731 0.75s0.327 0.75 0.731 0.75h9.928l-3.137 3.22c-0.285 0.293-0.285 0.768 0 1.061s0.748 0.293 1.034 0l4.385-4.5c0.285-0.293 0.285-0.768 0-1.061z"></path>
<path d="M13.962 3c0.404 0 0.731 0.336 0.731 0.75s-0.327 0.75-0.731 0.75h-7.308c-1.211 0-2.192 1.007-2.192 2.25v10.5c0 1.243 0.982 2.25 2.192 2.25h7.308c0.404 0 0.731 0.336 0.731 0.75s-0.327 0.75-0.731 0.75h-7.308c-2.018 0-3.654-1.679-3.654-3.75v-10.5c0-2.071 1.636-3.75 3.654-3.75h7.308z"></path>
</svg>
