<!-- Generated by IcoMoon.io -->
<svg version="1.1" xmlns="http://www.w3.org/2000/svg" width="24" height="24" viewBox="0 0 24 24">
<title>ic_share_24_regular</title>
<path d="M6.747 4h3.464c0.414 0 0.75 0.336 0.75 0.75 0 0.38-0.282 0.693-0.648 0.743l-0.102 0.007h-3.464c-1.191 0-2.166 0.925-2.245 2.096l-0.005 0.154v9.5c0 1.191 0.925 2.166 2.096 2.245l0.154 0.005h9.501c1.191 0 2.166-0.925 2.245-2.096l0.005-0.154v-0.498c0-0.414 0.336-0.75 0.75-0.75 0.38 0 0.693 0.282 0.743 0.648l0.007 0.102v0.498c0 2.004-1.572 3.641-3.551 3.745l-0.199 0.005h-9.501c-2.004 0-3.641-1.572-3.745-3.551l-0.005-0.199v-9.5c0-2.004 1.572-3.641 3.551-3.745l0.199-0.005zM14.501 6.519v-2.77c0-0.624 0.707-0.96 1.187-0.61l0.082 0.069 5.995 5.75c0.28 0.268 0.305 0.699 0.076 0.997l-0.076 0.085-5.995 5.752c-0.45 0.432-1.182 0.155-1.262-0.434l-0.007-0.107v-2.725l-0.343 0.030c-2.4 0.25-4.7 1.331-6.915 3.261-0.519 0.452-1.322 0.025-1.237-0.659 0.665-5.32 3.447-8.252 8.196-8.619l0.299-0.020zM16.001 5.508v1.741c0 0.414-0.336 0.75-0.75 0.75-3.873 0-6.274 1.676-7.311 5.157l-0.079 0.279 0.352-0.237c2.236-1.462 4.586-2.199 7.038-2.199 0.38 0 0.693 0.282 0.743 0.648l0.007 0.102v1.743l4.161-3.993-4.161-3.991z"></path>
</svg>
