<!-- Generated by IcoMoon.io -->
<svg version="1.1" xmlns="http://www.w3.org/2000/svg" width="24" height="24" viewBox="0 0 24 24">
<title>ic_skip_right_24_regular</title>
<path d="M3 4.753c0-1.408 1.578-2.239 2.739-1.444l10.498 7.193c1.010 0.692 1.015 2.181 0.010 2.88l-10.498 7.302c-1.16 0.807-2.749-0.023-2.749-1.437v-14.495zM4.891 4.547c-0.166-0.114-0.391 0.005-0.391 0.206v14.495c0 0.202 0.227 0.321 0.393 0.205l10.498-7.302c0.144-0.1 0.143-0.313-0.001-0.411l-10.498-7.193zM21 3.75c0-0.414-0.336-0.75-0.75-0.75s-0.75 0.336-0.75 0.75v16.5c0 0.414 0.336 0.75 0.75 0.75s0.75-0.336 0.75-0.75v-16.5z"></path>
</svg>
