<!-- Generated by IcoMoon.io -->
<svg version="1.1" xmlns="http://www.w3.org/2000/svg" width="24" height="24" viewBox="0 0 24 24">
<title>ic_settings_24_regular</title>
<path d="M12.012 2.25c0.734 0.008 1.465 0.093 2.181 0.253 0.313 0.070 0.547 0.33 0.582 0.649l0.17 1.527c0.077 0.701 0.669 1.232 1.375 1.233 0.19 0 0.377-0.039 0.553-0.117l1.401-0.615c0.291-0.128 0.632-0.058 0.849 0.174 1.012 1.081 1.766 2.378 2.205 3.792 0.095 0.305-0.014 0.636-0.271 0.826l-1.242 0.915c-0.354 0.26-0.563 0.673-0.563 1.113s0.209 0.853 0.564 1.113l1.242 0.915c0.257 0.189 0.366 0.521 0.271 0.826-0.439 1.414-1.192 2.711-2.204 3.792-0.217 0.232-0.557 0.302-0.849 0.174l-1.406-0.616c-0.402-0.176-0.864-0.15-1.245 0.069s-0.633 0.607-0.681 1.044l-0.169 1.527c-0.035 0.315-0.264 0.574-0.572 0.647-1.448 0.345-2.958 0.345-4.406 0-0.308-0.073-0.537-0.332-0.572-0.647l-0.169-1.524c-0.050-0.436-0.303-0.822-0.683-1.041s-0.841-0.245-1.242-0.070l-1.407 0.616c-0.291 0.128-0.632 0.058-0.849-0.175-1.012-1.082-1.766-2.38-2.204-3.796-0.094-0.305 0.015-0.636 0.272-0.825l1.243-0.916c0.354-0.26 0.563-0.673 0.563-1.113s-0.209-0.853-0.564-1.113l-1.243-0.914c-0.257-0.189-0.366-0.521-0.272-0.826 0.439-1.414 1.193-2.711 2.205-3.792 0.217-0.232 0.558-0.302 0.849-0.174l1.4 0.615c0.403 0.177 0.866 0.15 1.248-0.073 0.38-0.221 0.634-0.608 0.682-1.045l0.17-1.526c0.036-0.319 0.27-0.579 0.583-0.649 0.717-0.16 1.449-0.244 2.201-0.253zM12.012 3.75c-0.454 0.005-0.907 0.045-1.355 0.117l-0.109 0.977c-0.102 0.909-0.629 1.717-1.418 2.175-0.794 0.464-1.763 0.52-2.606 0.15l-0.898-0.395c-0.572 0.694-1.027 1.477-1.348 2.317l0.798 0.587c0.739 0.543 1.175 1.405 1.175 2.322s-0.436 1.779-1.174 2.321l-0.799 0.589c0.32 0.842 0.776 1.626 1.348 2.321l0.905-0.396c0.838-0.366 1.8-0.312 2.592 0.144s1.321 1.262 1.424 2.173l0.109 0.984c0.89 0.151 1.799 0.151 2.688 0l0.109-0.984c0.101-0.911 0.629-1.719 1.422-2.177s1.757-0.512 2.597-0.145l0.904 0.396c0.572-0.694 1.027-1.477 1.347-2.318l-0.798-0.588c-0.739-0.543-1.175-1.405-1.175-2.322s0.436-1.779 1.174-2.321l0.797-0.587c-0.321-0.84-0.776-1.623-1.348-2.318l-0.897 0.394c-0.365 0.162-0.761 0.245-1.16 0.244-1.47-0.002-2.703-1.108-2.864-2.568l-0.109-0.977c-0.446-0.072-0.894-0.112-1.334-0.117zM12 8.25c2.071 0 3.75 1.679 3.75 3.75s-1.679 3.75-3.75 3.75c-2.071 0-3.75-1.679-3.75-3.75s1.679-3.75 3.75-3.75zM12 9.75c-1.243 0-2.25 1.007-2.25 2.25s1.007 2.25 2.25 2.25 2.25-1.007 2.25-2.25c0-1.243-1.007-2.25-2.25-2.25z"></path>
</svg>
