<!-- Generated by IcoMoon.io -->
<svg version="1.1" xmlns="http://www.w3.org/2000/svg" width="24" height="24" viewBox="0 0 24 24">
<title>ic_target_24_regular</title>
<path d="M11.998 14c1.104 0 2-0.895 2-2s-0.896-2-2-2c-1.105 0-2 0.895-2 2s0.895 2 2 2zM5.998 12c0-3.314 2.686-6 6-6s6 2.686 6 6c0 3.314-2.686 6-6 6s-6-2.686-6-6zM11.998 7.5c-2.485 0-4.5 2.015-4.5 4.5s2.015 4.5 4.5 4.5c2.485 0 4.5-2.015 4.5-4.5s-2.015-4.5-4.5-4.5zM1.996 12c0-5.524 4.478-10.002 10.002-10.002s10.002 4.478 10.002 10.002c0 5.524-4.478 10.002-10.002 10.002s-10.002-4.478-10.002-10.002zM11.998 3.498c-4.696 0-8.502 3.807-8.502 8.502s3.807 8.502 8.502 8.502 8.502-3.807 8.502-8.502c0-4.696-3.807-8.502-8.502-8.502z"></path>
</svg>
