<!-- Generated by IcoMoon.io -->
<svg version="1.1" xmlns="http://www.w3.org/2000/svg" width="24" height="24" viewBox="0 0 24 24">
<title>ic_warning_24_regular</title>
<path d="M12.999 17c0-0.552-0.447-0.999-0.999-0.999s-0.999 0.447-0.999 0.999c0 0.552 0.447 0.999 0.999 0.999s0.999-0.447 0.999-0.999zM12.74 9.147c-0.050-0.366-0.364-0.648-0.744-0.648-0.414 0-0.75 0.336-0.749 0.751l0.004 4.502 0.007 0.102c0.050 0.366 0.364 0.648 0.744 0.648 0.414-0 0.75-0.336 0.749-0.751l-0.004-4.502-0.007-0.102zM13.969 3.659c-0.856-1.548-3.081-1.548-3.938 0l-7.745 14.001c-0.83 1.5 0.255 3.339 1.969 3.339h15.491c1.714 0 2.798-1.839 1.969-3.339l-7.746-14.001zM11.344 4.385c0.285-0.516 1.027-0.516 1.313-0l7.746 14.002c0.276 0.5-0.085 1.113-0.656 1.113h-15.491c-0.571 0-0.933-0.613-0.656-1.113l7.745-14.001z"></path>
</svg>
