<!-- Generated by IcoMoon.io -->
<svg version="1.1" xmlns="http://www.w3.org/2000/svg" width="24" height="24" viewBox="0 0 24 24">
<title>ic_invalid_24_filled</title>
<path fill="#a5a5a5" stroke="#fff" stroke-linejoin="miter" stroke-linecap="butt" stroke-miterlimit="4" stroke-width="1.5" d="M3.373 13.485c-0.813-0.813-0.813-2.13 0-2.943l7.169-7.169c0.813-0.813 2.13-0.813 2.943 0l7.169 7.169c0.813 0.813 0.813 2.13 0 2.943l-7.169 7.169c-0.813 0.813-2.13 0.813-2.943 0l-7.169-7.169z"></path>
<path fill="#fff" d="M12.012 15.517c0.553 0 1.001 0.448 1.001 1.001s-0.448 1.001-1.001 1.001c-0.553 0-1.001-0.448-1.001-1.001s0.448-1.001 1.001-1.001zM12.012 6.755c1.521 0 2.754 1.233 2.754 2.754 0 1.012-0.298 1.576-1.053 2.362l-0.169 0.172c-0.623 0.623-0.781 0.887-0.781 1.472 0 0.415-0.336 0.751-0.751 0.751s-0.751-0.336-0.751-0.751c0-1.012 0.298-1.576 1.053-2.362l0.169-0.172c0.623-0.623 0.781-0.887 0.781-1.472 0-0.691-0.56-1.252-1.252-1.252-0.648 0-1.181 0.493-1.245 1.124l-0.006 0.128c0 0.415-0.336 0.751-0.751 0.751s-0.751-0.336-0.751-0.751c0-1.521 1.233-2.754 2.754-2.754z"></path>
</svg>
