<!-- Generated by IcoMoon.io -->
<svg version="1.1" xmlns="http://www.w3.org/2000/svg" width="24" height="24" viewBox="0 0 24 24">
<title>ic_minor_warning_24_filled</title>
<path fill="#ff9e1b" stroke="#fff" stroke-linejoin="miter" stroke-linecap="butt" stroke-miterlimit="4" stroke-width="1.5" d="M13.825 5.223c-0.792-1.432-2.851-1.432-3.643 0l-7.165 12.953c-0.767 1.387 0.236 3.089 1.821 3.089h14.331c1.585 0 2.589-1.702 1.821-3.089l-7.166-12.953z"></path>
<path fill="#fff" d="M11.999 16.003c0.552 0 0.999 0.447 0.999 0.999s-0.447 0.999-0.999 0.999c-0.552 0-0.999-0.447-0.999-0.999s0.447-0.999 0.999-0.999z"></path>
<path fill="#fff" d="M11.994 8.501c0.38-0 0.694 0.282 0.744 0.648l0.007 0.102 0.004 4.502c0 0.414-0.335 0.75-0.749 0.751-0.38 0-0.694-0.282-0.744-0.648l-0.007-0.102-0.004-4.502c-0-0.414 0.335-0.75 0.749-0.751z"></path>
</svg>
