<!-- Generated by IcoMoon.io -->
<svg version="1.1" xmlns="http://www.w3.org/2000/svg" width="24" height="24" viewBox="0 0 24 24">
<title>ic_machine_safety_24_filled</title>
<path fill="#fff" d="M12.997 15.501c0-0.552-0.447-0.999-0.999-0.999s-0.999 0.447-0.999 0.999 0.447 0.999 0.999 0.999c0.552 0 0.999-0.447 0.999-0.999z"></path>
<path fill="#fff" d="M12.738 7.648c-0.050-0.366-0.364-0.648-0.744-0.648-0.414 0-0.75 0.336-0.749 0.751l0.004 4.502 0.007 0.102c0.050 0.366 0.364 0.648 0.744 0.648 0.414-0 0.75-0.336 0.749-0.751l-0.004-4.502-0.007-0.102z"></path>
<path fill="#de3730" stroke="#fff" stroke-linejoin="miter" stroke-linecap="butt" stroke-miterlimit="4" stroke-width="1.5" d="M21.267 12.018c0-5.108-4.141-9.25-9.25-9.25s-9.25 4.142-9.25 9.25c0 5.108 4.141 9.25 9.25 9.25s9.25-4.142 9.25-9.25z"></path>
<path fill="none" stroke="#fff" stroke-linejoin="round" stroke-linecap="round" stroke-miterlimit="4" stroke-width="1.5" d="M8.037 15.936v-7.838l3.98 6.664 3.98-6.664v7.838"></path>
</svg>
