<!-- Generated by IcoMoon.io -->
<svg version="1.1" xmlns="http://www.w3.org/2000/svg" width="24" height="24" viewBox="0 0 24 24">
<title>ic_major_warning_triangle_24_filled</title>
<path fill="#de3730" stroke="#fff" stroke-linejoin="miter" stroke-linecap="butt" stroke-miterlimit="4" stroke-width="1.5" d="M13.825 20.181c-0.792 1.432-2.851 1.432-3.643-0l-7.165-12.953c-0.767-1.387 0.236-3.089 1.821-3.089h14.331c1.585 0 2.589 1.702 1.821 3.089l-7.166 12.953z"></path>
<path fill="#fff" d="M11.999 14.907c0.552 0 0.999 0.447 0.999 0.999s-0.447 0.999-0.999 0.999c-0.552 0-0.999-0.447-0.999-0.999s0.447-0.999 0.999-0.999z"></path>
<path fill="#fff" d="M11.994 7.404c0.38-0 0.694 0.282 0.744 0.648l0.007 0.102 0.004 4.502c0 0.414-0.335 0.75-0.749 0.751-0.38 0-0.694-0.282-0.744-0.648l-0.007-0.102-0.004-4.502c-0-0.414 0.335-0.75 0.749-0.751z"></path>
</svg>
