<!-- Generated by IcoMoon.io -->
<svg version="1.1" xmlns="http://www.w3.org/2000/svg" width="24" height="24" viewBox="0 0 24 24">
<title>ic_not_connected_24_filled</title>
<path fill="#fa00fa" stroke="#fff" stroke-linejoin="round" stroke-linecap="round" stroke-miterlimit="4" stroke-width="1.5" d="M2.757 6.097c0-1.845 1.496-3.34 3.34-3.34h11.819c1.845 0 3.34 1.495 3.34 3.34v11.819c0 1.845-1.495 3.34-3.34 3.34h-11.819c-1.845 0-3.34-1.495-3.34-3.34v-11.819z"></path>
<path fill="none" stroke="#fff" stroke-linejoin="round" stroke-linecap="round" stroke-miterlimit="4" stroke-width="1.5" d="M17.82 14.402c0.116-0.293 0.18-0.611 0.18-0.944 0-1.367-1.075-2.49-2.448-2.614-0.281-1.661-1.764-2.928-3.552-2.928-0.268 0-0.529 0.028-0.78 0.082M9.172 9.25c-0.369 0.454-0.624 0.999-0.725 1.595-1.373 0.124-2.448 1.247-2.448 2.614 0 1.45 1.209 2.625 2.7 2.625h6.6c0.274 0 0.538-0.039 0.787-0.113M6.6 6.75l10.8 10.5"></path>
</svg>
