<!-- Generated by IcoMoon.io -->
<svg version="1.1" xmlns="http://www.w3.org/2000/svg" width="24" height="24" viewBox="0 0 24 24">
<title>ic_stop_24_filled</title>
<path fill="#de3730" stroke="#fff" stroke-linejoin="miter" stroke-linecap="butt" stroke-miterlimit="4" stroke-width="1.5" d="M7.295 3.64c0.563-0.563 1.326-0.879 2.121-0.879h5.168c0.796 0 1.559 0.316 2.121 0.879l3.655 3.655c0.563 0.563 0.879 1.326 0.879 2.121v5.168c0 0.796-0.316 1.559-0.879 2.121l-3.655 3.655c-0.563 0.563-1.326 0.879-2.121 0.879h-5.168c-0.796 0-1.559-0.316-2.121-0.879l-3.655-3.655c-0.563-0.563-0.879-1.326-0.879-2.121v-5.168c0-0.796 0.316-1.559 0.879-2.121l3.655-3.655z"></path>
<path fill="none" stroke="#fff" stroke-linejoin="round" stroke-linecap="round" stroke-miterlimit="4" stroke-width="1.5" d="M18 18l-12-12"></path>
</svg>
